<?xml version="1.0" encoding="UTF-8"?>
<svg id="_レイヤー_1" data-name="レイヤー 1" xmlns="http://www.w3.org/2000/svg" viewBox="0 0 235.53 105.16">
  <defs>
    <style>
      .cls-1 {
        stroke-width: 2px;
      }

      .cls-1, .cls-2 {
        fill: none;
        stroke: #231815;
        stroke-miterlimit: 10;
      }

      .cls-2 {
        stroke-width: 3px;
      }

      .cls-3 {
        fill: #e60012;
      }

      .cls-4 {
        fill: #00a0e9;
      }

      .cls-5 {
        fill: #231815;
      }
    </style>
  </defs>
  <g>
    <circle class="cls-2" cx="43.52" cy="59.91" r="35.43"/>
    <path class="cls-5" d="m50.61,59.91c0,3.91-3.17,7.09-7.09,7.09s-7.09-3.17-7.09-7.09,3.17-22.78,7.09-22.78,7.09,18.87,7.09,22.78Z"/>
    <path class="cls-5" d="m47.76,65.37c-3.13,2.34-7.58,1.7-9.92-1.43s-1.7-7.58,1.43-9.92,26.07-17.03,28.41-13.89-16.79,22.9-19.92,25.24Z"/>
    <path class="cls-1" d="m85.8,92.48l-7.76-7.76c5.03-6.98,8-15.55,8-24.81,0-23.48-19.04-42.52-42.52-42.52S1,36.42,1,59.91s19.04,42.52,42.52,42.52c9.54,0,18.35-3.14,25.44-8.45l7.67,7.67c2.99,2.99,7.47,3.37,10,.83s2.16-7.01-.83-10Z"/>
  </g>
  <g>
    <path class="cls-3" d="m149.13,79.34c0-23.29,6.43-59.56,14.36-59.56s14.36,36.27,14.36,59.56-6.43,24.78-14.36,24.78-14.36-1.49-14.36-24.78Z"/>
    <circle class="cls-3" cx="163.49" cy="6.88" r="6.88"/>
  </g>
  <g>
    <rect class="cls-4" x="187.39" y="65.27" width="46.92" height="12.74" rx="6.37" ry="6.37" transform="translate(309.29 271.39) rotate(-135)"/>
    <rect class="cls-4" x="188.61" y="37.29" width="46.92" height="12.74" rx="6.37" ry="6.37"/>
    <rect class="cls-4" x="188.61" y="65.27" width="46.92" height="12.74" rx="6.37" ry="6.37" transform="translate(11.46 170.94) rotate(-45)"/>
    <rect class="cls-4" x="188.61" y="91.42" width="46.92" height="12.74" rx="6.37" ry="6.37"/>
  </g>
  <path class="cls-5" d="m134.83,61.79h0c-1.96,0-3.54,1.59-3.54,3.54v17.56h0c0,7.83-6.35,14.17-14.17,14.17s-14.17-6.35-14.17-14.17h0v-17.56c0-1.96-1.59-3.54-3.54-3.54h0c-1.96,0-3.54,1.59-3.54,3.54v17.01c0,11.52,8.92,21.36,20.43,21.8,5.75.22,10.99-1.86,14.94-5.37.03-.02.07,0,.07.03v1.74c0,1.96,1.59,3.54,3.54,3.54h0c1.96,0,3.54-1.59,3.54-3.54v-17.56h0s0-.05,0-.08v-17.56c0-1.96-1.59-3.54-3.54-3.54Z"/>
</svg>